<svg width="540" height="449" viewBox="0 0 540 449" fill="none" xmlns="http://www.w3.org/2000/svg">
<path d="M380 370.821L374.615 213.343L287.385 44L156 200.399L184 387L380 370.821Z" fill="#C4C4C4"/>
<path d="M410.787 415L487 179.009L287.153 33L89 179.009L165.213 415H410.787Z" stroke="black"/>
<path d="M384.915 379L446 192.184L286.5 75L127 192.184L190.5 379H384.915Z" stroke="black"/>
<path d="M361.082 347L406 205.266L287.348 117L167 205.266L213.5 347H361.082Z" stroke="black"/>
<path d="M335 311L365 217.875L286.849 162L207 217.875L239.5 311H335Z" stroke="black"/>
<path d="M310.5 277L327 231.494L287.5 202L248 231.494L262.598 277H310.5Z" stroke="black"/>
<path d="M487 179L287 244" stroke="black"/>
<path d="M287 33V244" stroke="black"/>
<path d="M89 179L287 244" stroke="black"/>
<path d="M165 415L287 244" stroke="black"/>
<path d="M411 415L287 244" stroke="black"/>
<path d="M238.98 15V14.72L240.086 14.3V6.46L238.98 6.04V5.76H242.284V6.04L241.178 6.46V14.3L242.284 14.72V15H238.98ZM244.104 15V14.72L245.21 14.3L245.504 6.488L244.3 6.04V5.76H246.722L250.012 13.432L253.344 5.76H255.668V6.04L254.492 6.474L254.73 14.3L255.71 14.72V15H252.63V14.72L253.666 14.314L253.512 7.062L250.04 15.07H249.55L246.148 7.09L245.98 14.314L247.114 14.72V15H244.104ZM257.015 15V14.72L257.855 14.37L261.425 5.69H261.915L265.471 14.356L266.353 14.72V15H263.091V14.72L264.295 14.356L263.203 11.626H259.745L258.667 14.37L259.871 14.72V15H257.015ZM260.011 10.968H262.937L261.467 7.3L260.011 10.968ZM272.093 15.14C271.197 15.14 270.395 14.944 269.685 14.552C268.985 14.16 268.435 13.628 268.033 12.956C267.632 12.2747 267.431 11.5 267.431 10.632C267.431 9.91333 267.557 9.25067 267.809 8.644C268.071 8.03733 268.425 7.51 268.873 7.062C269.321 6.60467 269.844 6.25 270.441 5.998C271.039 5.746 271.673 5.62 272.345 5.62C272.84 5.62 273.255 5.648 273.591 5.704C273.937 5.76 274.245 5.83933 274.515 5.942C274.795 6.04467 275.066 6.16133 275.327 6.292L275.397 8.546H275.145L274.389 6.978C273.997 6.698 273.647 6.502 273.339 6.39C273.031 6.26867 272.681 6.208 272.289 6.208C271.533 6.208 270.871 6.376 270.301 6.712C269.732 7.048 269.284 7.50533 268.957 8.084C268.64 8.65333 268.481 9.288 268.481 9.988C268.481 10.9213 268.659 11.7193 269.013 12.382C269.368 13.0447 269.839 13.5533 270.427 13.908C271.025 14.2627 271.678 14.44 272.387 14.44C272.714 14.44 273.027 14.4213 273.325 14.384C273.633 14.3373 273.951 14.2487 274.277 14.118V11.668L273.045 11.22V10.94H276.377V11.22L275.369 11.668V14.02C274.968 14.3653 274.464 14.6407 273.857 14.846C273.251 15.042 272.663 15.14 272.093 15.14ZM278.054 15V14.72L279.16 14.3V6.46L278.054 6.04V5.76H281.358V6.04L280.252 6.46V14.3L281.358 14.72V15H278.054ZM283.206 15V14.72L284.312 14.3V6.474L283.22 6.04V5.76H285.18L290.668 12.886V6.446L289.352 6.04V5.76H292.572V6.04L291.466 6.46V15.07H291.032L285.124 7.44V14.286L286.468 14.72V15H283.206ZM293.478 15V14.72L294.318 14.37L297.888 5.69H298.378L301.934 14.356L302.816 14.72V15H299.554V14.72L300.758 14.356L299.666 11.626H296.208L295.13 14.37L296.334 14.72V15H293.478ZM296.474 10.968H299.4L297.93 7.3L296.474 10.968ZM305.549 15V14.72L306.949 14.3V6.418H304.485L303.687 8.476H303.435V5.76H311.555V8.476H311.303L310.505 6.418H308.041V14.3L309.441 14.72V15H305.549ZM313.164 15V14.72L314.27 14.3V6.46L313.164 6.04V5.76H316.468V6.04L315.362 6.46V14.3L316.468 14.72V15H313.164ZM322.977 15.14C322.324 15.14 321.717 15.0233 321.157 14.79C320.607 14.5473 320.126 14.216 319.715 13.796C319.314 13.3667 318.997 12.8627 318.763 12.284C318.539 11.7053 318.427 11.0707 318.427 10.38C318.427 9.68933 318.539 9.05467 318.763 8.476C318.997 7.89733 319.314 7.398 319.715 6.978C320.126 6.54867 320.607 6.21733 321.157 5.984C321.717 5.74133 322.324 5.62 322.977 5.62C323.631 5.62 324.233 5.74133 324.783 5.984C325.343 6.21733 325.829 6.54867 326.239 6.978C326.65 7.398 326.967 7.89733 327.191 8.476C327.425 9.05467 327.541 9.68933 327.541 10.38C327.541 11.0707 327.425 11.7053 327.191 12.284C326.967 12.8627 326.65 13.3667 326.239 13.796C325.829 14.216 325.343 14.5473 324.783 14.79C324.233 15.0233 323.631 15.14 322.977 15.14ZM323.271 14.552C323.887 14.552 324.429 14.398 324.895 14.09C325.362 13.782 325.726 13.348 325.987 12.788C326.249 12.228 326.379 11.57 326.379 10.814C326.379 9.88067 326.216 9.06867 325.889 8.378C325.563 7.68733 325.124 7.15067 324.573 6.768C324.023 6.38533 323.411 6.194 322.739 6.194C322.123 6.194 321.577 6.348 321.101 6.656C320.625 6.95467 320.252 7.384 319.981 7.944C319.72 8.504 319.589 9.162 319.589 9.918C319.589 10.8513 319.753 11.668 320.079 12.368C320.406 13.0587 320.845 13.5953 321.395 13.978C321.955 14.3607 322.581 14.552 323.271 14.552ZM329.389 15V14.72L330.495 14.3V6.474L329.403 6.04V5.76H331.363L336.851 12.886V6.446L335.535 6.04V5.76H338.755V6.04L337.649 6.46V15.07H337.215L331.307 7.44V14.286L332.651 14.72V15H329.389Z" fill="black"/>
<path d="M116.91 441V440.72L118.03 440.3V432.46L116.91 432.04V431.76H120.2C121.301 431.76 122.183 431.961 122.846 432.362C123.518 432.763 123.854 433.398 123.854 434.266C123.854 434.779 123.686 435.237 123.35 435.638C123.014 436.03 122.547 436.343 121.95 436.576C121.362 436.809 120.69 436.926 119.934 436.926H119.122V440.3L120.382 440.72V441H116.91ZM119.122 432.418V436.268H120.256C120.993 436.268 121.581 436.095 122.02 435.75C122.459 435.395 122.678 434.938 122.678 434.378C122.678 433.687 122.454 433.188 122.006 432.88C121.567 432.572 120.951 432.418 120.158 432.418H119.122ZM125.496 441V440.72L126.602 440.3V432.46L125.496 432.04V431.76H132.104V434.112H131.866L131.11 432.418H127.694V435.904H130.144L130.704 434.742H130.942V437.696H130.704L130.144 436.562H127.694V440.342H131.502L132.258 438.508H132.496V441H125.496ZM134.383 441V440.72L135.503 440.3V432.46L134.383 432.04V431.76H137.645C138.625 431.76 139.395 431.965 139.955 432.376C140.524 432.777 140.809 433.333 140.809 434.042C140.809 434.583 140.627 435.059 140.263 435.47C139.908 435.871 139.441 436.17 138.863 436.366L141.537 440.356L142.461 440.72V441H140.613L137.869 436.702H136.595V440.286L137.645 440.72V441H134.383ZM137.505 432.418H136.595V436.044H137.589C138.177 436.044 138.662 435.871 139.045 435.526C139.437 435.181 139.633 434.747 139.633 434.224C139.633 433.664 139.441 433.225 139.059 432.908C138.676 432.581 138.158 432.418 137.505 432.418ZM147.945 441.14C147.021 441.14 146.213 440.944 145.523 440.552C144.841 440.16 144.309 439.623 143.927 438.942C143.553 438.261 143.367 437.491 143.367 436.632C143.367 435.951 143.493 435.307 143.745 434.7C143.997 434.093 144.342 433.561 144.781 433.104C145.229 432.637 145.742 432.273 146.321 432.012C146.899 431.751 147.515 431.62 148.169 431.62C148.626 431.62 149.013 431.653 149.331 431.718C149.657 431.774 149.947 431.853 150.199 431.956C150.46 432.059 150.721 432.171 150.983 432.292L151.039 434.63H150.773L150.045 432.964C149.681 432.712 149.354 432.525 149.065 432.404C148.775 432.273 148.453 432.208 148.099 432.208C147.389 432.208 146.759 432.381 146.209 432.726C145.667 433.071 145.238 433.543 144.921 434.14C144.603 434.737 144.445 435.409 144.445 436.156C144.445 437.052 144.603 437.831 144.921 438.494C145.238 439.147 145.663 439.651 146.195 440.006C146.736 440.361 147.343 440.538 148.015 440.538C148.491 440.538 148.897 440.473 149.233 440.342C149.569 440.211 149.867 440.057 150.129 439.88L150.941 438.284H151.193L151.053 440.454C150.782 440.594 150.502 440.715 150.213 440.818C149.933 440.921 149.611 441 149.247 441.056C148.892 441.112 148.458 441.14 147.945 441.14ZM153.387 441V440.72L154.493 440.3V432.46L153.387 432.04V431.76H159.995V434.112H159.757L159.001 432.418H155.585V435.904H158.035L158.595 434.742H158.833V437.696H158.595L158.035 436.562H155.585V440.342H159.393L160.149 438.508H160.387V441H153.387ZM162.273 441V440.72L163.393 440.3V432.46L162.273 432.04V431.76H165.563C166.665 431.76 167.547 431.961 168.209 432.362C168.881 432.763 169.217 433.398 169.217 434.266C169.217 434.779 169.049 435.237 168.713 435.638C168.377 436.03 167.911 436.343 167.313 436.576C166.725 436.809 166.053 436.926 165.297 436.926H164.485V440.3L165.745 440.72V441H162.273ZM164.485 432.418V436.268H165.619C166.357 436.268 166.945 436.095 167.383 435.75C167.822 435.395 168.041 434.938 168.041 434.378C168.041 433.687 167.817 433.188 167.369 432.88C166.931 432.572 166.315 432.418 165.521 432.418H164.485ZM172.693 441V440.72L174.093 440.3V432.418H171.629L170.831 434.476H170.579V431.76H178.699V434.476H178.447L177.649 432.418H175.185V440.3L176.585 440.72V441H172.693ZM180.308 441V440.72L181.414 440.3V432.46L180.308 432.04V431.76H183.612V432.04L182.506 432.46V440.3L183.612 440.72V441H180.308ZM190.122 441.14C189.468 441.14 188.862 441.023 188.302 440.79C187.751 440.547 187.27 440.216 186.86 439.796C186.458 439.367 186.141 438.863 185.908 438.284C185.684 437.705 185.572 437.071 185.572 436.38C185.572 435.689 185.684 435.055 185.908 434.476C186.141 433.897 186.458 433.398 186.86 432.978C187.27 432.549 187.751 432.217 188.302 431.984C188.862 431.741 189.468 431.62 190.122 431.62C190.775 431.62 191.377 431.741 191.928 431.984C192.488 432.217 192.973 432.549 193.384 432.978C193.794 433.398 194.112 433.897 194.336 434.476C194.569 435.055 194.686 435.689 194.686 436.38C194.686 437.071 194.569 437.705 194.336 438.284C194.112 438.863 193.794 439.367 193.384 439.796C192.973 440.216 192.488 440.547 191.928 440.79C191.377 441.023 190.775 441.14 190.122 441.14ZM190.416 440.552C191.032 440.552 191.573 440.398 192.04 440.09C192.506 439.782 192.87 439.348 193.132 438.788C193.393 438.228 193.524 437.57 193.524 436.814C193.524 435.881 193.36 435.069 193.034 434.378C192.707 433.687 192.268 433.151 191.718 432.768C191.167 432.385 190.556 432.194 189.884 432.194C189.268 432.194 188.722 432.348 188.246 432.656C187.77 432.955 187.396 433.384 187.126 433.944C186.864 434.504 186.734 435.162 186.734 435.918C186.734 436.851 186.897 437.668 187.224 438.368C187.55 439.059 187.989 439.595 188.54 439.978C189.1 440.361 189.725 440.552 190.416 440.552ZM196.534 441V440.72L197.64 440.3V432.474L196.548 432.04V431.76H198.508L203.996 438.886V432.446L202.68 432.04V431.76H205.9V432.04L204.794 432.46V441.07H204.36L198.452 433.44V440.286L199.796 440.72V441H196.534Z" fill="black"/>
<path d="M0.84 183V182.72L1.946 182.3L2.24 174.488L1.036 174.04V173.76H3.458L6.748 181.432L10.08 173.76H12.404V174.04L11.228 174.474L11.466 182.3L12.446 182.72V183H9.366V182.72L10.402 182.314L10.248 175.062L6.776 183.07H6.286L2.884 175.09L2.716 182.314L3.85 182.72V183H0.84ZM13.7511 183V182.72L14.5911 182.37L18.1611 173.69H18.6511L22.2071 182.356L23.0891 182.72V183H19.8271V182.72L21.0311 182.356L19.9391 179.626H16.4811L15.4031 182.37L16.6071 182.72V183H13.7511ZM16.7471 178.968H19.6731L18.2031 175.3L16.7471 178.968ZM25.8221 183V182.72L27.2221 182.3V174.418H24.7581L23.9601 176.476H23.7081V173.76H31.8281V176.476H31.5761L30.7781 174.418H28.3141V182.3L29.7141 182.72V183H25.8221ZM38.043 183.14C37.3617 183.14 36.7504 183.014 36.209 182.762C35.677 182.51 35.257 182.118 34.949 181.586C34.641 181.054 34.487 180.363 34.487 179.514V174.46L33.367 174.04V173.76H36.699V174.04L35.579 174.46V179.318C35.579 180.093 35.6957 180.709 35.929 181.166C36.1717 181.614 36.503 181.936 36.923 182.132C37.343 182.328 37.8237 182.426 38.365 182.426C38.813 182.426 39.219 182.337 39.583 182.16C39.947 181.973 40.2364 181.684 40.451 181.292C40.675 180.9 40.787 180.387 40.787 179.752V174.432L39.387 174.04V173.76H42.705V174.04L41.599 174.446V179.514C41.599 180.363 41.445 181.054 41.137 181.586C40.829 182.118 40.4044 182.51 39.863 182.762C39.331 183.014 38.7244 183.14 38.043 183.14ZM44.5233 183V182.72L45.6433 182.3V174.46L44.5233 174.04V173.76H47.7853C48.7653 173.76 49.5353 173.965 50.0953 174.376C50.6646 174.777 50.9493 175.333 50.9493 176.042C50.9493 176.583 50.7673 177.059 50.4033 177.47C50.0486 177.871 49.5819 178.17 49.0033 178.366L51.6773 182.356L52.6013 182.72V183H50.7533L48.0093 178.702H46.7353V182.286L47.7853 182.72V183H44.5233ZM47.6453 174.418H46.7353V178.044H47.7293C48.3173 178.044 48.8026 177.871 49.1853 177.526C49.5773 177.181 49.7733 176.747 49.7733 176.224C49.7733 175.664 49.5819 175.225 49.1993 174.908C48.8166 174.581 48.2986 174.418 47.6453 174.418ZM53.5073 183V182.72L54.6133 182.3V174.46L53.5073 174.04V173.76H56.8113V174.04L55.7053 174.46V182.3L56.8113 182.72V183H53.5073ZM60.535 183V182.72L61.935 182.3V174.418H59.471L58.673 176.476H58.421V173.76H66.541V176.476H66.289L65.491 174.418H63.027V182.3L64.427 182.72V183H60.535ZM70.3619 183V182.72L71.6219 182.3V178.646L68.5279 174.404L67.6599 174.04V173.76H70.8519V174.04L69.8719 174.404V174.46L72.4339 178.016L74.7579 174.474V174.418L73.7359 174.04V173.76H76.5639V174.04L75.6819 174.376L72.7139 178.674V182.3L73.9739 182.72V183H70.3619Z" fill="black"/>
<path d="M385.558 441.14C384.634 441.14 383.827 440.944 383.136 440.552C382.455 440.16 381.923 439.623 381.54 438.942C381.167 438.261 380.98 437.491 380.98 436.632C380.98 435.951 381.106 435.307 381.358 434.7C381.61 434.093 381.955 433.561 382.394 433.104C382.842 432.637 383.355 432.273 383.934 432.012C384.513 431.751 385.129 431.62 385.782 431.62C386.239 431.62 386.627 431.653 386.944 431.718C387.271 431.774 387.56 431.853 387.812 431.956C388.073 432.059 388.335 432.171 388.596 432.292L388.652 434.63H388.386L387.658 432.964C387.294 432.712 386.967 432.525 386.678 432.404C386.389 432.273 386.067 432.208 385.712 432.208C385.003 432.208 384.373 432.381 383.822 432.726C383.281 433.071 382.851 433.543 382.534 434.14C382.217 434.737 382.058 435.409 382.058 436.156C382.058 437.052 382.217 437.831 382.534 438.494C382.851 439.147 383.276 439.651 383.808 440.006C384.349 440.361 384.956 440.538 385.628 440.538C386.104 440.538 386.51 440.473 386.846 440.342C387.182 440.211 387.481 440.057 387.742 439.88L388.554 438.284H388.806L388.666 440.454C388.395 440.594 388.115 440.715 387.826 440.818C387.546 440.921 387.224 441 386.86 441.056C386.505 441.112 386.071 441.14 385.558 441.14ZM391 441V440.72L392.106 440.3V432.46L391 432.04V431.76H394.346V432.04L393.198 432.46V435.904H398.168V432.46L397.02 432.04V431.76H400.366V432.04L399.26 432.46V440.3L400.366 440.72V441H397.02V440.72L398.168 440.3V436.562H393.198V440.3L394.346 440.72V441H391ZM401.735 441V440.72L402.575 440.37L406.145 431.69H406.635L410.191 440.356L411.073 440.72V441H407.811V440.72L409.015 440.356L407.923 437.626H404.465L403.387 440.37L404.591 440.72V441H401.735ZM404.731 436.968H407.657L406.187 433.3L404.731 436.968ZM412.451 441V440.72L413.571 440.3V432.46L412.451 432.04V431.76H415.713C416.693 431.76 417.463 431.965 418.023 432.376C418.592 432.777 418.877 433.333 418.877 434.042C418.877 434.583 418.695 435.059 418.331 435.47C417.976 435.871 417.51 436.17 416.931 436.366L419.605 440.356L420.529 440.72V441H418.681L415.937 436.702H414.663V440.286L415.713 440.72V441H412.451ZM415.573 432.418H414.663V436.044H415.657C416.245 436.044 416.73 435.871 417.113 435.526C417.505 435.181 417.701 434.747 417.701 434.224C417.701 433.664 417.51 433.225 417.127 432.908C416.744 432.581 416.226 432.418 415.573 432.418ZM421.435 441V440.72L422.541 440.3V432.46L421.435 432.04V431.76H424.739V432.04L423.633 432.46V440.3L424.739 440.72V441H421.435ZM429.359 441.14C428.799 441.14 428.323 441.089 427.931 440.986C427.539 440.874 427.128 440.711 426.699 440.496L426.559 438.256H426.797L427.525 439.866C427.861 440.127 428.183 440.314 428.491 440.426C428.799 440.529 429.111 440.58 429.429 440.58C430.007 440.58 430.455 440.426 430.773 440.118C431.09 439.81 431.249 439.385 431.249 438.844C431.249 438.424 431.151 438.093 430.955 437.85C430.759 437.607 430.479 437.393 430.115 437.206C429.76 437.019 429.34 436.805 428.855 436.562C428.425 436.347 428.066 436.133 427.777 435.918C427.487 435.703 427.263 435.456 427.105 435.176C426.955 434.896 426.881 434.546 426.881 434.126C426.881 433.818 426.955 433.515 427.105 433.216C427.254 432.917 427.455 432.651 427.707 432.418C427.968 432.175 428.257 431.984 428.575 431.844C428.901 431.695 429.237 431.62 429.583 431.62C430.012 431.62 430.399 431.671 430.745 431.774C431.099 431.877 431.463 432.021 431.837 432.208L431.977 434.392H431.739L431.123 432.852C430.833 432.609 430.567 432.441 430.325 432.348C430.091 432.245 429.821 432.194 429.513 432.194C429.027 432.194 428.645 432.343 428.365 432.642C428.085 432.931 427.945 433.295 427.945 433.734C427.945 434.061 428.01 434.341 428.141 434.574C428.281 434.798 428.491 435.008 428.771 435.204C429.051 435.391 429.405 435.587 429.835 435.792C430.395 436.063 430.857 436.319 431.221 436.562C431.585 436.805 431.855 437.085 432.033 437.402C432.21 437.71 432.299 438.102 432.299 438.578C432.299 438.979 432.21 439.339 432.033 439.656C431.855 439.973 431.622 440.244 431.333 440.468C431.043 440.683 430.726 440.851 430.381 440.972C430.035 441.084 429.695 441.14 429.359 441.14ZM433.914 441V440.72L435.02 440.3L435.314 432.488L434.11 432.04V431.76H436.532L439.822 439.432L443.154 431.76H445.478V432.04L444.302 432.474L444.54 440.3L445.52 440.72V441H442.44V440.72L443.476 440.314L443.322 433.062L439.85 441.07H439.36L435.958 433.09L435.79 440.314L436.924 440.72V441H433.914ZM446.825 441V440.72L447.665 440.37L451.235 431.69H451.725L455.281 440.356L456.163 440.72V441H452.901V440.72L454.105 440.356L453.013 437.626H449.555L448.477 440.37L449.681 440.72V441H446.825ZM449.821 436.968H452.747L451.277 433.3L449.821 436.968Z" fill="black"/>
<path d="M497.91 183V182.72L499.016 182.3V174.46L497.91 174.04V173.76H501.368V174.04L500.108 174.46V182.342H503.664L504.504 179.948H504.742V183H497.91ZM510.83 183.14C510.149 183.14 509.537 183.014 508.996 182.762C508.464 182.51 508.044 182.118 507.736 181.586C507.428 181.054 507.274 180.363 507.274 179.514V174.46L506.154 174.04V173.76H509.486V174.04L508.366 174.46V179.318C508.366 180.093 508.483 180.709 508.716 181.166C508.959 181.614 509.29 181.936 509.71 182.132C510.13 182.328 510.611 182.426 511.152 182.426C511.6 182.426 512.006 182.337 512.37 182.16C512.734 181.973 513.023 181.684 513.238 181.292C513.462 180.9 513.574 180.387 513.574 179.752V174.432L512.174 174.04V173.76H515.492V174.04L514.386 174.446V179.514C514.386 180.363 514.232 181.054 513.924 181.586C513.616 182.118 513.191 182.51 512.65 182.762C512.118 183.014 511.511 183.14 510.83 183.14ZM521.822 183.14C520.898 183.14 520.09 182.944 519.4 182.552C518.718 182.16 518.186 181.623 517.804 180.942C517.43 180.261 517.244 179.491 517.244 178.632C517.244 177.951 517.37 177.307 517.622 176.7C517.874 176.093 518.219 175.561 518.658 175.104C519.106 174.637 519.619 174.273 520.198 174.012C520.776 173.751 521.392 173.62 522.046 173.62C522.503 173.62 522.89 173.653 523.208 173.718C523.534 173.774 523.824 173.853 524.076 173.956C524.337 174.059 524.598 174.171 524.86 174.292L524.916 176.63H524.65L523.922 174.964C523.558 174.712 523.231 174.525 522.942 174.404C522.652 174.273 522.33 174.208 521.976 174.208C521.266 174.208 520.636 174.381 520.086 174.726C519.544 175.071 519.115 175.543 518.798 176.14C518.48 176.737 518.322 177.409 518.322 178.156C518.322 179.052 518.48 179.831 518.798 180.494C519.115 181.147 519.54 181.651 520.072 182.006C520.613 182.361 521.22 182.538 521.892 182.538C522.368 182.538 522.774 182.473 523.11 182.342C523.446 182.211 523.744 182.057 524.006 181.88L524.818 180.284H525.07L524.93 182.454C524.659 182.594 524.379 182.715 524.09 182.818C523.81 182.921 523.488 183 523.124 183.056C522.769 183.112 522.335 183.14 521.822 183.14ZM527.264 183V182.72L528.384 182.3V174.46L527.264 174.04V173.76H530.596V174.04L529.476 174.46V178.24L533.438 174.418L532.402 174.04V173.76H535.272V174.04L534.418 174.306L530.568 177.96L535.104 182.44L536 182.72V183H534.166L529.476 178.296V182.3L530.596 182.72V183H527.264Z" fill="black"/>
</svg>
