<svg width="540" height="444" viewBox="0 0 540 444" fill="none" xmlns="http://www.w3.org/2000/svg">
<path d="M380 377.821L374.615 220.343L287.385 51L156 207.399L184 394L380 377.821Z" fill="#EF8BB9"/>
<path d="M410.787 410L487 174.009L287.153 28L89 174.009L165.213 410H410.787Z" stroke="black"/>
<path d="M384.915 374L446 187.184L286.5 70L127 187.184L190.5 374H384.915Z" stroke="black"/>
<path d="M361.082 342L406 200.266L287.348 112L167 200.266L213.5 342H361.082Z" stroke="black"/>
<path d="M335 306L365 212.875L286.849 157L207 212.875L239.5 306H335Z" stroke="black"/>
<path d="M310.5 272L327 226.494L287.5 197L248 226.494L262.598 272H310.5Z" stroke="black"/>
<path d="M487 174L287 239" stroke="black"/>
<path d="M287 28V239" stroke="black"/>
<path d="M89 174L287 239" stroke="black"/>
<path d="M165 410L287 239" stroke="black"/>
<path d="M411 410L287 239" stroke="black"/>
<path d="M238.98 15V14.72L240.086 14.3V6.46L238.98 6.04V5.76H242.284V6.04L241.178 6.46V14.3L242.284 14.72V15H238.98ZM244.104 15V14.72L245.21 14.3L245.504 6.488L244.3 6.04V5.76H246.722L250.012 13.432L253.344 5.76H255.668V6.04L254.492 6.474L254.73 14.3L255.71 14.72V15H252.63V14.72L253.666 14.314L253.512 7.062L250.04 15.07H249.55L246.148 7.09L245.98 14.314L247.114 14.72V15H244.104ZM257.015 15V14.72L257.855 14.37L261.425 5.69H261.915L265.471 14.356L266.353 14.72V15H263.091V14.72L264.295 14.356L263.203 11.626H259.745L258.667 14.37L259.871 14.72V15H257.015ZM260.011 10.968H262.937L261.467 7.3L260.011 10.968ZM272.093 15.14C271.197 15.14 270.395 14.944 269.685 14.552C268.985 14.16 268.435 13.628 268.033 12.956C267.632 12.2747 267.431 11.5 267.431 10.632C267.431 9.91333 267.557 9.25067 267.809 8.644C268.071 8.03733 268.425 7.51 268.873 7.062C269.321 6.60467 269.844 6.25 270.441 5.998C271.039 5.746 271.673 5.62 272.345 5.62C272.84 5.62 273.255 5.648 273.591 5.704C273.937 5.76 274.245 5.83933 274.515 5.942C274.795 6.04467 275.066 6.16133 275.327 6.292L275.397 8.546H275.145L274.389 6.978C273.997 6.698 273.647 6.502 273.339 6.39C273.031 6.26867 272.681 6.208 272.289 6.208C271.533 6.208 270.871 6.376 270.301 6.712C269.732 7.048 269.284 7.50533 268.957 8.084C268.64 8.65333 268.481 9.288 268.481 9.988C268.481 10.9213 268.659 11.7193 269.013 12.382C269.368 13.0447 269.839 13.5533 270.427 13.908C271.025 14.2627 271.678 14.44 272.387 14.44C272.714 14.44 273.027 14.4213 273.325 14.384C273.633 14.3373 273.951 14.2487 274.277 14.118V11.668L273.045 11.22V10.94H276.377V11.22L275.369 11.668V14.02C274.968 14.3653 274.464 14.6407 273.857 14.846C273.251 15.042 272.663 15.14 272.093 15.14ZM278.054 15V14.72L279.16 14.3V6.46L278.054 6.04V5.76H281.358V6.04L280.252 6.46V14.3L281.358 14.72V15H278.054ZM283.206 15V14.72L284.312 14.3V6.474L283.22 6.04V5.76H285.18L290.668 12.886V6.446L289.352 6.04V5.76H292.572V6.04L291.466 6.46V15.07H291.032L285.124 7.44V14.286L286.468 14.72V15H283.206ZM293.478 15V14.72L294.318 14.37L297.888 5.69H298.378L301.934 14.356L302.816 14.72V15H299.554V14.72L300.758 14.356L299.666 11.626H296.208L295.13 14.37L296.334 14.72V15H293.478ZM296.474 10.968H299.4L297.93 7.3L296.474 10.968ZM305.549 15V14.72L306.949 14.3V6.418H304.485L303.687 8.476H303.435V5.76H311.555V8.476H311.303L310.505 6.418H308.041V14.3L309.441 14.72V15H305.549ZM313.164 15V14.72L314.27 14.3V6.46L313.164 6.04V5.76H316.468V6.04L315.362 6.46V14.3L316.468 14.72V15H313.164ZM322.977 15.14C322.324 15.14 321.717 15.0233 321.157 14.79C320.607 14.5473 320.126 14.216 319.715 13.796C319.314 13.3667 318.997 12.8627 318.763 12.284C318.539 11.7053 318.427 11.0707 318.427 10.38C318.427 9.68933 318.539 9.05467 318.763 8.476C318.997 7.89733 319.314 7.398 319.715 6.978C320.126 6.54867 320.607 6.21733 321.157 5.984C321.717 5.74133 322.324 5.62 322.977 5.62C323.631 5.62 324.233 5.74133 324.783 5.984C325.343 6.21733 325.829 6.54867 326.239 6.978C326.65 7.398 326.967 7.89733 327.191 8.476C327.425 9.05467 327.541 9.68933 327.541 10.38C327.541 11.0707 327.425 11.7053 327.191 12.284C326.967 12.8627 326.65 13.3667 326.239 13.796C325.829 14.216 325.343 14.5473 324.783 14.79C324.233 15.0233 323.631 15.14 322.977 15.14ZM323.271 14.552C323.887 14.552 324.429 14.398 324.895 14.09C325.362 13.782 325.726 13.348 325.987 12.788C326.249 12.228 326.379 11.57 326.379 10.814C326.379 9.88067 326.216 9.06867 325.889 8.378C325.563 7.68733 325.124 7.15067 324.573 6.768C324.023 6.38533 323.411 6.194 322.739 6.194C322.123 6.194 321.577 6.348 321.101 6.656C320.625 6.95467 320.252 7.384 319.981 7.944C319.72 8.504 319.589 9.162 319.589 9.918C319.589 10.8513 319.753 11.668 320.079 12.368C320.406 13.0587 320.845 13.5953 321.395 13.978C321.955 14.3607 322.581 14.552 323.271 14.552ZM329.389 15V14.72L330.495 14.3V6.474L329.403 6.04V5.76H331.363L336.851 12.886V6.446L335.535 6.04V5.76H338.755V6.04L337.649 6.46V15.07H337.215L331.307 7.44V14.286L332.651 14.72V15H329.389Z" fill="black"/>
<path d="M116.91 436V435.72L118.03 435.3V427.46L116.91 427.04V426.76H120.2C121.301 426.76 122.183 426.961 122.846 427.362C123.518 427.763 123.854 428.398 123.854 429.266C123.854 429.779 123.686 430.237 123.35 430.638C123.014 431.03 122.547 431.343 121.95 431.576C121.362 431.809 120.69 431.926 119.934 431.926H119.122V435.3L120.382 435.72V436H116.91ZM119.122 427.418V431.268H120.256C120.993 431.268 121.581 431.095 122.02 430.75C122.459 430.395 122.678 429.938 122.678 429.378C122.678 428.687 122.454 428.188 122.006 427.88C121.567 427.572 120.951 427.418 120.158 427.418H119.122ZM125.496 436V435.72L126.602 435.3V427.46L125.496 427.04V426.76H132.104V429.112H131.866L131.11 427.418H127.694V430.904H130.144L130.704 429.742H130.942V432.696H130.704L130.144 431.562H127.694V435.342H131.502L132.258 433.508H132.496V436H125.496ZM134.383 436V435.72L135.503 435.3V427.46L134.383 427.04V426.76H137.645C138.625 426.76 139.395 426.965 139.955 427.376C140.524 427.777 140.809 428.333 140.809 429.042C140.809 429.583 140.627 430.059 140.263 430.47C139.908 430.871 139.441 431.17 138.863 431.366L141.537 435.356L142.461 435.72V436H140.613L137.869 431.702H136.595V435.286L137.645 435.72V436H134.383ZM137.505 427.418H136.595V431.044H137.589C138.177 431.044 138.662 430.871 139.045 430.526C139.437 430.181 139.633 429.747 139.633 429.224C139.633 428.664 139.441 428.225 139.059 427.908C138.676 427.581 138.158 427.418 137.505 427.418ZM147.945 436.14C147.021 436.14 146.213 435.944 145.523 435.552C144.841 435.16 144.309 434.623 143.927 433.942C143.553 433.261 143.367 432.491 143.367 431.632C143.367 430.951 143.493 430.307 143.745 429.7C143.997 429.093 144.342 428.561 144.781 428.104C145.229 427.637 145.742 427.273 146.321 427.012C146.899 426.751 147.515 426.62 148.169 426.62C148.626 426.62 149.013 426.653 149.331 426.718C149.657 426.774 149.947 426.853 150.199 426.956C150.46 427.059 150.721 427.171 150.983 427.292L151.039 429.63H150.773L150.045 427.964C149.681 427.712 149.354 427.525 149.065 427.404C148.775 427.273 148.453 427.208 148.099 427.208C147.389 427.208 146.759 427.381 146.209 427.726C145.667 428.071 145.238 428.543 144.921 429.14C144.603 429.737 144.445 430.409 144.445 431.156C144.445 432.052 144.603 432.831 144.921 433.494C145.238 434.147 145.663 434.651 146.195 435.006C146.736 435.361 147.343 435.538 148.015 435.538C148.491 435.538 148.897 435.473 149.233 435.342C149.569 435.211 149.867 435.057 150.129 434.88L150.941 433.284H151.193L151.053 435.454C150.782 435.594 150.502 435.715 150.213 435.818C149.933 435.921 149.611 436 149.247 436.056C148.892 436.112 148.458 436.14 147.945 436.14ZM153.387 436V435.72L154.493 435.3V427.46L153.387 427.04V426.76H159.995V429.112H159.757L159.001 427.418H155.585V430.904H158.035L158.595 429.742H158.833V432.696H158.595L158.035 431.562H155.585V435.342H159.393L160.149 433.508H160.387V436H153.387ZM162.273 436V435.72L163.393 435.3V427.46L162.273 427.04V426.76H165.563C166.665 426.76 167.547 426.961 168.209 427.362C168.881 427.763 169.217 428.398 169.217 429.266C169.217 429.779 169.049 430.237 168.713 430.638C168.377 431.03 167.911 431.343 167.313 431.576C166.725 431.809 166.053 431.926 165.297 431.926H164.485V435.3L165.745 435.72V436H162.273ZM164.485 427.418V431.268H165.619C166.357 431.268 166.945 431.095 167.383 430.75C167.822 430.395 168.041 429.938 168.041 429.378C168.041 428.687 167.817 428.188 167.369 427.88C166.931 427.572 166.315 427.418 165.521 427.418H164.485ZM172.693 436V435.72L174.093 435.3V427.418H171.629L170.831 429.476H170.579V426.76H178.699V429.476H178.447L177.649 427.418H175.185V435.3L176.585 435.72V436H172.693ZM180.308 436V435.72L181.414 435.3V427.46L180.308 427.04V426.76H183.612V427.04L182.506 427.46V435.3L183.612 435.72V436H180.308ZM190.122 436.14C189.468 436.14 188.862 436.023 188.302 435.79C187.751 435.547 187.27 435.216 186.86 434.796C186.458 434.367 186.141 433.863 185.908 433.284C185.684 432.705 185.572 432.071 185.572 431.38C185.572 430.689 185.684 430.055 185.908 429.476C186.141 428.897 186.458 428.398 186.86 427.978C187.27 427.549 187.751 427.217 188.302 426.984C188.862 426.741 189.468 426.62 190.122 426.62C190.775 426.62 191.377 426.741 191.928 426.984C192.488 427.217 192.973 427.549 193.384 427.978C193.794 428.398 194.112 428.897 194.336 429.476C194.569 430.055 194.686 430.689 194.686 431.38C194.686 432.071 194.569 432.705 194.336 433.284C194.112 433.863 193.794 434.367 193.384 434.796C192.973 435.216 192.488 435.547 191.928 435.79C191.377 436.023 190.775 436.14 190.122 436.14ZM190.416 435.552C191.032 435.552 191.573 435.398 192.04 435.09C192.506 434.782 192.87 434.348 193.132 433.788C193.393 433.228 193.524 432.57 193.524 431.814C193.524 430.881 193.36 430.069 193.034 429.378C192.707 428.687 192.268 428.151 191.718 427.768C191.167 427.385 190.556 427.194 189.884 427.194C189.268 427.194 188.722 427.348 188.246 427.656C187.77 427.955 187.396 428.384 187.126 428.944C186.864 429.504 186.734 430.162 186.734 430.918C186.734 431.851 186.897 432.668 187.224 433.368C187.55 434.059 187.989 434.595 188.54 434.978C189.1 435.361 189.725 435.552 190.416 435.552ZM196.534 436V435.72L197.64 435.3V427.474L196.548 427.04V426.76H198.508L203.996 433.886V427.446L202.68 427.04V426.76H205.9V427.04L204.794 427.46V436.07H204.36L198.452 428.44V435.286L199.796 435.72V436H196.534Z" fill="black"/>
<path d="M0.84 178V177.72L1.946 177.3L2.24 169.488L1.036 169.04V168.76H3.458L6.748 176.432L10.08 168.76H12.404V169.04L11.228 169.474L11.466 177.3L12.446 177.72V178H9.366V177.72L10.402 177.314L10.248 170.062L6.776 178.07H6.286L2.884 170.09L2.716 177.314L3.85 177.72V178H0.84ZM13.7511 178V177.72L14.5911 177.37L18.1611 168.69H18.6511L22.2071 177.356L23.0891 177.72V178H19.8271V177.72L21.0311 177.356L19.9391 174.626H16.4811L15.4031 177.37L16.6071 177.72V178H13.7511ZM16.7471 173.968H19.6731L18.2031 170.3L16.7471 173.968ZM25.8221 178V177.72L27.2221 177.3V169.418H24.7581L23.9601 171.476H23.7081V168.76H31.8281V171.476H31.5761L30.7781 169.418H28.3141V177.3L29.7141 177.72V178H25.8221ZM38.043 178.14C37.3617 178.14 36.7504 178.014 36.209 177.762C35.677 177.51 35.257 177.118 34.949 176.586C34.641 176.054 34.487 175.363 34.487 174.514V169.46L33.367 169.04V168.76H36.699V169.04L35.579 169.46V174.318C35.579 175.093 35.6957 175.709 35.929 176.166C36.1717 176.614 36.503 176.936 36.923 177.132C37.343 177.328 37.8237 177.426 38.365 177.426C38.813 177.426 39.219 177.337 39.583 177.16C39.947 176.973 40.2364 176.684 40.451 176.292C40.675 175.9 40.787 175.387 40.787 174.752V169.432L39.387 169.04V168.76H42.705V169.04L41.599 169.446V174.514C41.599 175.363 41.445 176.054 41.137 176.586C40.829 177.118 40.4044 177.51 39.863 177.762C39.331 178.014 38.7244 178.14 38.043 178.14ZM44.5233 178V177.72L45.6433 177.3V169.46L44.5233 169.04V168.76H47.7853C48.7653 168.76 49.5353 168.965 50.0953 169.376C50.6646 169.777 50.9493 170.333 50.9493 171.042C50.9493 171.583 50.7673 172.059 50.4033 172.47C50.0486 172.871 49.5819 173.17 49.0033 173.366L51.6773 177.356L52.6013 177.72V178H50.7533L48.0093 173.702H46.7353V177.286L47.7853 177.72V178H44.5233ZM47.6453 169.418H46.7353V173.044H47.7293C48.3173 173.044 48.8026 172.871 49.1853 172.526C49.5773 172.181 49.7733 171.747 49.7733 171.224C49.7733 170.664 49.5819 170.225 49.1993 169.908C48.8166 169.581 48.2986 169.418 47.6453 169.418ZM53.5073 178V177.72L54.6133 177.3V169.46L53.5073 169.04V168.76H56.8113V169.04L55.7053 169.46V177.3L56.8113 177.72V178H53.5073ZM60.535 178V177.72L61.935 177.3V169.418H59.471L58.673 171.476H58.421V168.76H66.541V171.476H66.289L65.491 169.418H63.027V177.3L64.427 177.72V178H60.535ZM70.3619 178V177.72L71.6219 177.3V173.646L68.5279 169.404L67.6599 169.04V168.76H70.8519V169.04L69.8719 169.404V169.46L72.4339 173.016L74.7579 169.474V169.418L73.7359 169.04V168.76H76.5639V169.04L75.6819 169.376L72.7139 173.674V177.3L73.9739 177.72V178H70.3619Z" fill="black"/>
<path d="M385.558 436.14C384.634 436.14 383.827 435.944 383.136 435.552C382.455 435.16 381.923 434.623 381.54 433.942C381.167 433.261 380.98 432.491 380.98 431.632C380.98 430.951 381.106 430.307 381.358 429.7C381.61 429.093 381.955 428.561 382.394 428.104C382.842 427.637 383.355 427.273 383.934 427.012C384.513 426.751 385.129 426.62 385.782 426.62C386.239 426.62 386.627 426.653 386.944 426.718C387.271 426.774 387.56 426.853 387.812 426.956C388.073 427.059 388.335 427.171 388.596 427.292L388.652 429.63H388.386L387.658 427.964C387.294 427.712 386.967 427.525 386.678 427.404C386.389 427.273 386.067 427.208 385.712 427.208C385.003 427.208 384.373 427.381 383.822 427.726C383.281 428.071 382.851 428.543 382.534 429.14C382.217 429.737 382.058 430.409 382.058 431.156C382.058 432.052 382.217 432.831 382.534 433.494C382.851 434.147 383.276 434.651 383.808 435.006C384.349 435.361 384.956 435.538 385.628 435.538C386.104 435.538 386.51 435.473 386.846 435.342C387.182 435.211 387.481 435.057 387.742 434.88L388.554 433.284H388.806L388.666 435.454C388.395 435.594 388.115 435.715 387.826 435.818C387.546 435.921 387.224 436 386.86 436.056C386.505 436.112 386.071 436.14 385.558 436.14ZM391 436V435.72L392.106 435.3V427.46L391 427.04V426.76H394.346V427.04L393.198 427.46V430.904H398.168V427.46L397.02 427.04V426.76H400.366V427.04L399.26 427.46V435.3L400.366 435.72V436H397.02V435.72L398.168 435.3V431.562H393.198V435.3L394.346 435.72V436H391ZM401.735 436V435.72L402.575 435.37L406.145 426.69H406.635L410.191 435.356L411.073 435.72V436H407.811V435.72L409.015 435.356L407.923 432.626H404.465L403.387 435.37L404.591 435.72V436H401.735ZM404.731 431.968H407.657L406.187 428.3L404.731 431.968ZM412.451 436V435.72L413.571 435.3V427.46L412.451 427.04V426.76H415.713C416.693 426.76 417.463 426.965 418.023 427.376C418.592 427.777 418.877 428.333 418.877 429.042C418.877 429.583 418.695 430.059 418.331 430.47C417.976 430.871 417.51 431.17 416.931 431.366L419.605 435.356L420.529 435.72V436H418.681L415.937 431.702H414.663V435.286L415.713 435.72V436H412.451ZM415.573 427.418H414.663V431.044H415.657C416.245 431.044 416.73 430.871 417.113 430.526C417.505 430.181 417.701 429.747 417.701 429.224C417.701 428.664 417.51 428.225 417.127 427.908C416.744 427.581 416.226 427.418 415.573 427.418ZM421.435 436V435.72L422.541 435.3V427.46L421.435 427.04V426.76H424.739V427.04L423.633 427.46V435.3L424.739 435.72V436H421.435ZM429.359 436.14C428.799 436.14 428.323 436.089 427.931 435.986C427.539 435.874 427.128 435.711 426.699 435.496L426.559 433.256H426.797L427.525 434.866C427.861 435.127 428.183 435.314 428.491 435.426C428.799 435.529 429.111 435.58 429.429 435.58C430.007 435.58 430.455 435.426 430.773 435.118C431.09 434.81 431.249 434.385 431.249 433.844C431.249 433.424 431.151 433.093 430.955 432.85C430.759 432.607 430.479 432.393 430.115 432.206C429.76 432.019 429.34 431.805 428.855 431.562C428.425 431.347 428.066 431.133 427.777 430.918C427.487 430.703 427.263 430.456 427.105 430.176C426.955 429.896 426.881 429.546 426.881 429.126C426.881 428.818 426.955 428.515 427.105 428.216C427.254 427.917 427.455 427.651 427.707 427.418C427.968 427.175 428.257 426.984 428.575 426.844C428.901 426.695 429.237 426.62 429.583 426.62C430.012 426.62 430.399 426.671 430.745 426.774C431.099 426.877 431.463 427.021 431.837 427.208L431.977 429.392H431.739L431.123 427.852C430.833 427.609 430.567 427.441 430.325 427.348C430.091 427.245 429.821 427.194 429.513 427.194C429.027 427.194 428.645 427.343 428.365 427.642C428.085 427.931 427.945 428.295 427.945 428.734C427.945 429.061 428.01 429.341 428.141 429.574C428.281 429.798 428.491 430.008 428.771 430.204C429.051 430.391 429.405 430.587 429.835 430.792C430.395 431.063 430.857 431.319 431.221 431.562C431.585 431.805 431.855 432.085 432.033 432.402C432.21 432.71 432.299 433.102 432.299 433.578C432.299 433.979 432.21 434.339 432.033 434.656C431.855 434.973 431.622 435.244 431.333 435.468C431.043 435.683 430.726 435.851 430.381 435.972C430.035 436.084 429.695 436.14 429.359 436.14ZM433.914 436V435.72L435.02 435.3L435.314 427.488L434.11 427.04V426.76H436.532L439.822 434.432L443.154 426.76H445.478V427.04L444.302 427.474L444.54 435.3L445.52 435.72V436H442.44V435.72L443.476 435.314L443.322 428.062L439.85 436.07H439.36L435.958 428.09L435.79 435.314L436.924 435.72V436H433.914ZM446.825 436V435.72L447.665 435.37L451.235 426.69H451.725L455.281 435.356L456.163 435.72V436H452.901V435.72L454.105 435.356L453.013 432.626H449.555L448.477 435.37L449.681 435.72V436H446.825ZM449.821 431.968H452.747L451.277 428.3L449.821 431.968Z" fill="black"/>
<path d="M497.91 178V177.72L499.016 177.3V169.46L497.91 169.04V168.76H501.368V169.04L500.108 169.46V177.342H503.664L504.504 174.948H504.742V178H497.91ZM510.83 178.14C510.149 178.14 509.537 178.014 508.996 177.762C508.464 177.51 508.044 177.118 507.736 176.586C507.428 176.054 507.274 175.363 507.274 174.514V169.46L506.154 169.04V168.76H509.486V169.04L508.366 169.46V174.318C508.366 175.093 508.483 175.709 508.716 176.166C508.959 176.614 509.29 176.936 509.71 177.132C510.13 177.328 510.611 177.426 511.152 177.426C511.6 177.426 512.006 177.337 512.37 177.16C512.734 176.973 513.023 176.684 513.238 176.292C513.462 175.9 513.574 175.387 513.574 174.752V169.432L512.174 169.04V168.76H515.492V169.04L514.386 169.446V174.514C514.386 175.363 514.232 176.054 513.924 176.586C513.616 177.118 513.191 177.51 512.65 177.762C512.118 178.014 511.511 178.14 510.83 178.14ZM521.822 178.14C520.898 178.14 520.09 177.944 519.4 177.552C518.718 177.16 518.186 176.623 517.804 175.942C517.43 175.261 517.244 174.491 517.244 173.632C517.244 172.951 517.37 172.307 517.622 171.7C517.874 171.093 518.219 170.561 518.658 170.104C519.106 169.637 519.619 169.273 520.198 169.012C520.776 168.751 521.392 168.62 522.046 168.62C522.503 168.62 522.89 168.653 523.208 168.718C523.534 168.774 523.824 168.853 524.076 168.956C524.337 169.059 524.598 169.171 524.86 169.292L524.916 171.63H524.65L523.922 169.964C523.558 169.712 523.231 169.525 522.942 169.404C522.652 169.273 522.33 169.208 521.976 169.208C521.266 169.208 520.636 169.381 520.086 169.726C519.544 170.071 519.115 170.543 518.798 171.14C518.48 171.737 518.322 172.409 518.322 173.156C518.322 174.052 518.48 174.831 518.798 175.494C519.115 176.147 519.54 176.651 520.072 177.006C520.613 177.361 521.22 177.538 521.892 177.538C522.368 177.538 522.774 177.473 523.11 177.342C523.446 177.211 523.744 177.057 524.006 176.88L524.818 175.284H525.07L524.93 177.454C524.659 177.594 524.379 177.715 524.09 177.818C523.81 177.921 523.488 178 523.124 178.056C522.769 178.112 522.335 178.14 521.822 178.14ZM527.264 178V177.72L528.384 177.3V169.46L527.264 169.04V168.76H530.596V169.04L529.476 169.46V173.24L533.438 169.418L532.402 169.04V168.76H535.272V169.04L534.418 169.306L530.568 172.96L535.104 177.44L536 177.72V178H534.166L529.476 173.296V177.3L530.596 177.72V178H527.264Z" fill="black"/>
</svg>
